# xmcd CD database file
#
# Track frame offsets:
#	150
#	14798
#	33510
#	49012
#	62407
#	74135
#	87823
#	107534
#	117655
#	134292
#	147765
#	162733
#	175833
#	187338
#	198429
#	211667
#	221025
#	236321
#
# Disc length: 3308 seconds
#
# Revision: 0
# Processed by: cddbd v1.5.2PL0 Copyright (c) Steve Scherf et al.
# Submitted via: CDex 1.51
#
DISCID=130cea12
DTITLE=Various Artist - Jazz Ladies CD 3
DYEAR=1900
DGENRE=Jazz
TTITLE0=Sarah Vaughan - Summertime
TTITLE1=Nina Simone - I Love You Porgy
TTITLE2=Dinah Washington - Willow Weep For Me
TTITLE3=Judy Garland - Rock-A-Bye Your Baby
TTITLE4=Ella Fitzgerald - A Tisket - A Tasket
TTITLE5=Billie Holiday - They Can't Take That Away From Me
TTITLE6=Astrud Gilberto - Far Away
TTITLE7=Peggy Lee - What Is This Thing Called Love
TTITLE8=Doris Day - Secret Love
TTITLE9=Sarah Vaughan - It Might As Well Be Spring
TTITLE10=Lena Horne - Good For Nothing Joe
TTITLE11=Dinah Shore - Come Rain Or Come Shine
TTITLE12=Judy Garland - You Belong To Me
TTITLE13=Dinah Washington - Every Time You Say Goodbye
TTITLE14=Billie Holiday - I Cover The Waterfront
TTITLE15=Peggy Lee - You
TTITLE16=Lena Horne - How Long Has This Been Going On
TTITLE17=Astrud Gilberto - Wanting You
EXTD=
EXTT0=
EXTT1=
EXTT2=
EXTT3=
EXTT4=
EXTT5=
EXTT6=
EXTT7=
EXTT8=
EXTT9=
EXTT10=
EXTT11=
EXTT12=
EXTT13=
EXTT14=
EXTT15=
EXTT16=
EXTT17=
PLAYORDER=
